<svg width="99" height="27" viewBox="0 0 99 27" fill="none" xmlns="http://www.w3.org/2000/svg">
<path fill-rule="evenodd" clip-rule="evenodd" d="M7.63047 7.25568V10.3701H12.0038H19.7553V7.25568H7.63047ZM7.63047 17.6223V26.8143H0.485443V17.6223V10.3701V7.25568L7.63047 0.00341797H19.7553H26.9003V7.25568V10.3701V11.6944V17.6223V19.5622V26.8143H19.7553V17.6223H12.0038H7.63047Z" fill="#D42E12"/>
<path fill-rule="evenodd" clip-rule="evenodd" d="M39.025 0.00292969H46.1702V19.5617L39.025 26.8138H26.9002H19.7552V19.5617V11.6939V0.00292969H26.9002V11.6939V19.5617H39.025V0.00292969Z" fill="#D42E12"/>
<path fill-rule="evenodd" clip-rule="evenodd" d="M55.805 0.00292969H62.9502H65.44H72.585V7.2552H62.9502V11.6939V19.5617V26.8138H55.805V11.6939V7.2552H46.1702V0.00292969H55.805Z" fill="#D42E12"/>
<path fill-rule="evenodd" clip-rule="evenodd" d="M79.7302 7.2552V19.5617H91.855V7.2552H79.7302ZM91.855 0.00292969H99V7.2552V19.5617L91.855 26.8138H79.7302H72.585V19.5617V7.2552L79.7302 0.00292969H91.855Z" fill="#D42E12"/>
</svg>
