<svg width="78" height="22" viewBox="0 0 78 22" fill="none" xmlns="http://www.w3.org/2000/svg">
<path fill-rule="evenodd" clip-rule="evenodd" d="M6.20964 5.90278V8.34384H9.6458H15.7363V5.90278H6.20964ZM6.20964 14.0279V21.2325H0.595692V14.0279V8.34384V5.90278L6.20964 0.218567H15.7363H21.3502V5.90278V8.34384V9.38175V14.0279V15.5484V21.2325H15.7363V14.0279H9.6458H6.20964Z" fill="#D42E12"/>
<path fill-rule="evenodd" clip-rule="evenodd" d="M30.8767 0.218597H36.4908V15.5485L30.8767 21.2326H21.3501H15.7362V15.5485V9.38178V0.218597H21.3501V9.38178V15.5485H30.8767V0.218597Z" fill="#D42E12"/>
<path fill-rule="evenodd" clip-rule="evenodd" d="M44.0611 0.218597H49.6751H51.6314H57.2454V5.90281H49.6751V9.38178V15.5485V21.2326H44.0611V9.38178V5.90281H36.4908V0.218597H44.0611Z" fill="#D42E12"/>
<path fill-rule="evenodd" clip-rule="evenodd" d="M62.8594 5.90281V15.5485H72.386V5.90281H62.8594ZM72.386 0.218597H78V5.90281V15.5485L72.386 21.2326H62.8594H57.2453V15.5485V5.90281L62.8594 0.218597H72.386Z" fill="#D42E12"/>
</svg>
