<svg width="168" height="6" viewBox="0 0 168 6" fill="none" xmlns="http://www.w3.org/2000/svg">
<path d="M7.98594 0.771973V2.07909H2.68049C2.3208 2.07909 2.04895 2.21078 1.86524 2.47399C1.70318 2.70126 1.62122 3.00528 1.62122 3.38778C1.62122 3.77169 1.70318 4.07415 1.86524 4.29828C2.04895 4.56165 2.3208 4.69318 2.68049 4.69318H7.98594V6.0003H2.47667C1.6738 6.0003 1.06081 5.7699 0.636179 5.30923C0.211544 4.84841 0 4.20897 0 3.38778C0 2.56502 0.211544 1.92402 0.636179 1.4632C1.06081 1.00238 1.6738 0.771973 2.47667 0.771973H7.98594ZM11.7025 4.76852H17.0868V6.0003H11.5002C10.6974 6.0003 10.0844 5.7699 9.66129 5.30923C9.23665 4.84841 9.02511 4.20897 9.02511 3.38778C9.02511 2.56502 9.23665 1.92402 9.66129 1.4632C10.0844 1.00238 10.6974 0.771973 11.5002 0.771973H17.0868V2.00391H11.7025C11.42 2.00391 11.1837 2.08537 10.9969 2.24688C10.9135 2.32049 10.8008 2.49282 10.6633 2.7609L10.6541 2.79371H17.0868V3.96914H10.6541L10.6633 3.9974C10.7869 4.26689 10.8981 4.44096 10.9969 4.52085C11.1837 4.68534 11.42 4.76852 11.7025 4.76852ZM26.3065 0.771973V2.07909H22.9913V6.0003H21.4442V2.07909H18.1291V0.771973H26.3065ZM33.8447 4.76852C34.1704 4.76852 34.3326 4.63684 34.3326 4.37346C34.3326 4.10397 34.1704 3.96914 33.8447 3.96914H28.8943V4.76852H33.8447ZM28.8943 0.771973V2.79371H34.2508C34.7511 2.79371 35.1479 2.93324 35.4412 3.21215C35.733 3.49122 35.8798 3.88454 35.8798 4.39229C35.8798 4.90004 35.7346 5.29667 35.4458 5.57715C35.1556 5.8592 34.7572 6.0003 34.2508 6.0003H27.3472V0.771973H28.8943ZM43.4706 2.00391V0.771973H49.6499C50.2614 0.771973 50.7463 0.935045 51.1013 1.26261C51.3253 1.46163 51.4782 1.69675 51.5585 1.96624C51.6124 2.16683 51.6403 2.45061 51.6403 2.81411V6.0003H44.7366C44.2333 6.0003 43.8349 5.8592 43.5447 5.57715C43.2529 5.29667 43.1077 4.90004 43.1077 4.39229C43.1077 3.88454 43.2544 3.49122 43.5493 3.21215C43.8427 2.93324 44.2395 2.79371 44.7366 2.79371H50.0931V2.74364C50.0931 2.35502 49.951 2.1199 49.6685 2.03985C49.5805 2.01647 49.4477 2.00391 49.2701 2.00391H43.4706ZM50.0931 4.76852V3.96914H45.1473C44.8186 3.96914 44.6548 4.10397 44.6548 4.37346C44.6548 4.63684 44.8186 4.76852 45.1473 4.76852H50.0931ZM52.6794 0.771973H59.5831C60.0895 0.771973 60.4878 0.913076 60.7781 1.19669C61.0668 1.48047 61.212 1.87537 61.212 2.38312C61.212 2.79685 61.1163 3.13383 60.9264 3.3972C61.1163 3.65414 61.212 3.98641 61.212 4.39387C61.212 4.90162 61.0668 5.29667 60.7781 5.57872C60.4878 5.8592 60.0895 6.0003 59.5831 6.0003H52.6794V0.771973ZM59.177 4.76852C59.5026 4.76852 59.6649 4.63684 59.6649 4.37346C59.6649 4.12281 59.5227 3.98798 59.2402 3.96914H54.2266V4.76852H59.177ZM54.2266 2.00391V2.79371H59.177C59.5026 2.79999 59.6649 2.66846 59.6649 2.39881C59.6649 2.1356 59.5026 2.00391 59.177 2.00391H54.2266ZM70.4301 0.771973V2.07909H67.115V6.0003H65.5678V2.07909H62.2527V0.771973H70.4301ZM73.3886 0.771973H78.3543C78.8855 0.771973 79.3378 0.961731 79.7116 1.34093C80.0852 1.7203 80.272 2.17939 80.272 2.71853V4.05374C80.272 4.58661 80.0852 5.04429 79.7116 5.42663C79.3378 5.80913 78.8855 6.0003 78.3543 6.0003H73.3886C72.8636 6.0003 72.4127 5.80913 72.036 5.42663C71.6592 5.04429 71.4708 4.58661 71.4708 4.05374V2.71853C71.4708 2.17939 71.6592 1.7203 72.036 1.34093C72.4127 0.961731 72.8636 0.771973 73.3886 0.771973ZM73.0643 2.79371V3.90338C73.0643 4.1228 73.1415 4.31241 73.2943 4.46764C73.4488 4.62428 73.634 4.70259 73.8518 4.70259H77.817C78.0347 4.70259 78.22 4.62428 78.3744 4.46764C78.5272 4.31241 78.6044 4.1228 78.6044 3.90338V2.79371C78.6044 2.57429 78.5272 2.38469 78.3744 2.22962C78.22 2.07282 78.0347 1.9945 77.817 1.9945H73.8518C73.634 1.9945 73.4488 2.07282 73.2943 2.22962C73.1415 2.38469 73.0643 2.57429 73.0643 2.79371ZM90.4676 0.771973H92.0425V6.0003H90.4954V2.36899C90.4768 2.38155 90.4227 2.42236 90.3301 2.49126C90.239 2.56032 90.1263 2.64492 89.9951 2.74364C89.8639 2.84394 89.7217 2.95208 89.5659 3.06964C89.4114 3.1872 89.2617 3.30162 89.118 3.40976C88.9744 3.51775 88.8463 3.61663 88.7321 3.7028C88.6178 3.79053 88.5344 3.85472 88.4834 3.89396C88.4047 3.95816 88.3214 4.01937 88.2318 4.08043C88.1421 4.14007 88.0526 4.19485 87.9631 4.24507C87.872 4.29514 87.7824 4.34066 87.6945 4.37974C87.6049 4.42055 87.5199 4.45194 87.4381 4.4769C87.3563 4.50515 87.2714 4.52555 87.1834 4.54125C87.0937 4.55694 87.0119 4.56793 86.9363 4.57264C86.8483 4.5819 86.7634 4.58818 86.6783 4.59132C86.5934 4.58818 86.5085 4.5819 86.4205 4.57264C86.3449 4.56793 86.263 4.55694 86.1734 4.54125C86.0854 4.52555 86.0005 4.50515 85.9187 4.4769C85.755 4.42526 85.5806 4.34693 85.3922 4.2435C85.2038 4.1385 85.0293 4.02251 84.8688 3.89396C84.8177 3.85472 84.7359 3.79053 84.6201 3.70122C84.5058 3.61192 84.3762 3.51319 84.231 3.40191C84.0874 3.2922 83.9361 3.17935 83.7801 3.06336C83.6227 2.9458 83.479 2.83923 83.3477 2.73893C83.2166 2.64021 83.1054 2.55561 83.0159 2.48655C82.9248 2.41764 82.8738 2.37841 82.8614 2.36899V6.0003H81.3143V0.771973H82.8892L85.7534 2.91598C85.843 2.98347 85.9389 3.04452 86.0377 3.0993C86.1256 3.14639 86.2245 3.18877 86.3341 3.22628C86.4453 3.26395 86.5596 3.28435 86.6814 3.28435C86.7988 3.28435 86.9115 3.26395 87.0227 3.22628C87.1323 3.18877 87.2312 3.14639 87.3191 3.0993C87.418 3.04452 87.5152 2.98347 87.608 2.91598L90.4676 0.771973ZM93.4477 2.00391V0.771973H99.627C100.238 0.771973 100.723 0.935045 101.078 1.26261C101.302 1.46163 101.455 1.69675 101.536 1.96624C101.59 2.16683 101.617 2.45061 101.617 2.81411V6.0003H94.7138C94.2104 6.0003 93.8121 5.8592 93.5218 5.57715C93.23 5.29667 93.0848 4.90004 93.0848 4.39229C93.0848 3.88454 93.2315 3.49122 93.5264 3.21215C93.8198 2.93324 94.2166 2.79371 94.7138 2.79371H100.07V2.74364C100.07 2.35502 99.9281 2.1199 99.6456 2.03985C99.5576 2.01647 99.4248 2.00391 99.2473 2.00391H93.4477ZM100.07 4.76852V3.96914H95.1245C94.7957 3.96914 94.632 4.10397 94.632 4.37346C94.632 4.63684 94.7957 4.76852 95.1245 4.76852H100.07ZM104.204 6.0003H102.657V0.771973H110.826V2.00391H104.204V6.0003ZM112.23 2.00391V0.771973H118.409C119.021 0.771973 119.506 0.935045 119.861 1.26261C120.085 1.46163 120.238 1.69675 120.318 1.96624C120.372 2.16683 120.4 2.45061 120.4 2.81411V6.0003H113.496C112.993 6.0003 112.594 5.8592 112.304 5.57715C112.012 5.29667 111.867 4.90004 111.867 4.39229C111.867 3.88454 112.014 3.49122 112.309 3.21215C112.602 2.93324 112.999 2.79371 113.496 2.79371H118.853V2.74364C118.853 2.35502 118.71 2.1199 118.428 2.03985C118.34 2.01647 118.207 2.00391 118.03 2.00391H112.23ZM118.853 4.76852V3.96914H113.907C113.578 3.96914 113.414 4.10397 113.414 4.37346C113.414 4.63684 113.578 4.76852 113.907 4.76852H118.853ZM121.44 4.76852H127.936C128.262 4.76852 128.424 4.63684 128.424 4.37346C128.424 4.12281 128.282 3.98798 128 3.96914H122.688V2.79371H127.936C128.262 2.79999 128.424 2.66846 128.424 2.39881C128.424 2.1356 128.262 2.00391 127.936 2.00391H121.44V0.771973H128.342C128.849 0.771973 129.247 0.913076 129.537 1.19669C129.826 1.48047 129.971 1.87537 129.971 2.38312C129.971 2.79685 129.876 3.13383 129.686 3.3972C129.876 3.65414 129.971 3.98641 129.971 4.39387C129.971 4.90162 129.826 5.29667 129.537 5.57872C129.247 5.8592 128.849 6.0003 128.342 6.0003H121.44V4.76852ZM132.848 6.0003C132.216 6.0003 131.753 5.83424 131.457 5.50197C131.159 5.1697 131.011 4.80446 131.011 4.40328V0.771973H132.558V4.1385C132.558 4.50829 132.737 4.69318 133.097 4.69318H137.783V0.771973H139.33V6.0003H132.848ZM148.579 0.771973V6.0003H147.032V3.96914H141.918V6.0003H140.371V0.771973H141.918V2.79371H147.032V0.771973H148.579ZM151.539 0.771973H156.505C157.036 0.771973 157.488 0.961731 157.862 1.34093C158.236 1.7203 158.423 2.17939 158.423 2.71853V4.05374C158.423 4.58661 158.236 5.04429 157.862 5.42663C157.488 5.80913 157.036 6.0003 156.505 6.0003H151.539C151.014 6.0003 150.563 5.80913 150.187 5.42663C149.81 5.04429 149.621 4.58661 149.621 4.05374V2.71853C149.621 2.17939 149.81 1.7203 150.187 1.34093C150.563 0.961731 151.014 0.771973 151.539 0.771973ZM151.215 2.79371V3.90338C151.215 4.1228 151.292 4.31241 151.445 4.46764C151.599 4.62428 151.785 4.70259 152.002 4.70259H155.967C156.185 4.70259 156.37 4.62428 156.525 4.46764C156.678 4.31241 156.755 4.1228 156.755 3.90338V2.79371C156.755 2.57429 156.678 2.38469 156.525 2.22962C156.37 2.07282 156.185 1.9945 155.967 1.9945H152.002C151.785 1.9945 151.599 2.07282 151.445 2.22962C151.292 2.38469 151.215 2.57429 151.215 2.79371ZM159.465 0.771973H166.368C166.875 0.771973 167.273 0.913076 167.563 1.19669C167.852 1.48047 167.997 1.87537 167.997 2.38312C167.997 2.79685 167.902 3.13383 167.712 3.3972C167.902 3.65414 167.997 3.98641 167.997 4.39387C167.997 4.90162 167.852 5.29667 167.563 5.57872C167.273 5.8592 166.875 6.0003 166.368 6.0003H159.465V0.771973ZM165.962 4.76852C166.288 4.76852 166.45 4.63684 166.45 4.37346C166.45 4.12281 166.308 3.98798 166.026 3.96914H161.012V4.76852H165.962ZM161.012 2.00391V2.79371H165.962C166.288 2.79999 166.45 2.66846 166.45 2.39881C166.45 2.1356 166.288 2.00391 165.962 2.00391H161.012Z" fill="white"/>
</svg>
