<svg width="132" height="5" viewBox="0 0 132 5" fill="none" xmlns="http://www.w3.org/2000/svg">
<path d="M6.27467 0.902161V1.92666H2.1061C1.82349 1.92666 1.60989 2.02987 1.46554 2.23618C1.33821 2.41431 1.27382 2.65259 1.27382 2.95239C1.27382 3.25329 1.33821 3.49035 1.46554 3.66602C1.60989 3.87245 1.82349 3.97554 2.1061 3.97554H6.27467V5.00004H1.94596C1.31513 5.00004 0.833496 4.81945 0.499855 4.45839C0.166213 4.09721 0 3.59602 0 2.95239C0 2.30752 0.166213 1.80512 0.499855 1.44394C0.833496 1.08275 1.31513 0.902161 1.94596 0.902161H6.27467ZM9.19482 4.03459H13.4254V5.00004H9.0359C8.40507 5.00004 7.92344 4.81945 7.59101 4.45839C7.25737 4.09721 7.09116 3.59602 7.09116 2.95239C7.09116 2.30752 7.25737 1.80512 7.59101 1.44394C7.92344 1.08275 8.40507 0.902161 9.0359 0.902161H13.4254V1.86773H9.19482C8.97284 1.86773 8.78719 1.93158 8.64041 2.05817C8.57492 2.11586 8.48635 2.25094 8.37834 2.46105L8.37105 2.48677H13.4254V3.40805H8.37105L8.37834 3.4302C8.47542 3.64142 8.56277 3.77785 8.64041 3.84047C8.78719 3.96939 8.97284 4.03459 9.19482 4.03459ZM20.6694 0.902161V1.92666H18.0646V5.00004H16.849V1.92666H14.2443V0.902161H20.6694ZM26.5923 4.03459C26.8482 4.03459 26.9756 3.93138 26.9756 3.72495C26.9756 3.51373 26.8482 3.40805 26.5923 3.40805H22.7027V4.03459H26.5923ZM22.7027 0.902161V2.48677H26.9113C27.3044 2.48677 27.6162 2.59613 27.8467 2.81473C28.0759 3.03346 28.1912 3.34174 28.1912 3.73971C28.1912 4.13768 28.0772 4.44855 27.8503 4.66838C27.6223 4.88945 27.3093 5.00004 26.9113 5.00004H21.4871V0.902161H22.7027ZM34.1555 1.86773V0.902161H39.0107C39.4911 0.902161 39.8721 1.02997 40.1511 1.28671C40.327 1.4427 40.4472 1.62699 40.5102 1.83821C40.5526 1.99543 40.5745 2.21785 40.5745 2.50276V5.00004H35.1502C34.7547 5.00004 34.4417 4.88945 34.2137 4.66838C33.9844 4.44855 33.8703 4.13768 33.8703 3.73971C33.8703 3.34174 33.9856 3.03346 34.2173 2.81473C34.4478 2.59613 34.7596 2.48677 35.1502 2.48677H39.3589V2.44753C39.3589 2.14293 39.2472 1.95864 39.0252 1.8959C38.9561 1.87757 38.8517 1.86773 38.7122 1.86773H34.1555ZM39.3589 4.03459V3.40805H35.4729C35.2146 3.40805 35.0859 3.51373 35.0859 3.72495C35.0859 3.93138 35.2146 4.03459 35.4729 4.03459H39.3589ZM41.391 0.902161H46.8153C47.2132 0.902161 47.5262 1.01276 47.7542 1.23505C47.9811 1.45747 48.0951 1.76698 48.0951 2.16495C48.0951 2.48923 48.0199 2.75335 47.8707 2.95977C48.0199 3.16115 48.0951 3.42158 48.0951 3.74094C48.0951 4.13891 47.9811 4.44855 47.7542 4.66961C47.5262 4.88945 47.2132 5.00004 46.8153 5.00004H41.391V0.902161ZM46.4962 4.03459C46.7521 4.03459 46.8795 3.93138 46.8795 3.72495C46.8795 3.52849 46.7679 3.42281 46.5459 3.40805H42.6066V4.03459H46.4962ZM42.6066 1.86773V2.48677H46.4962C46.7521 2.49169 46.8795 2.3886 46.8795 2.17725C46.8795 1.97095 46.7521 1.86773 46.4962 1.86773H42.6066ZM55.3379 0.902161V1.92666H52.7332V5.00004H51.5176V1.92666H48.9128V0.902161H55.3379ZM57.6625 0.902161H61.5641C61.9815 0.902161 62.3369 1.05089 62.6305 1.3481C62.9241 1.64544 63.0709 2.00527 63.0709 2.42784V3.47436C63.0709 3.89201 62.9241 4.25074 62.6305 4.55041C62.3369 4.85021 61.9815 5.00004 61.5641 5.00004H57.6625C57.25 5.00004 56.8957 4.85021 56.5997 4.55041C56.3036 4.25074 56.1556 3.89201 56.1556 3.47436V2.42784C56.1556 2.00527 56.3036 1.64544 56.5997 1.3481C56.8957 1.05089 57.25 0.902161 57.6625 0.902161ZM57.4077 2.48677V3.35651C57.4077 3.52849 57.4683 3.6771 57.5884 3.79876C57.7098 3.92154 57.8553 3.98292 58.0264 3.98292H61.1419C61.313 3.98292 61.4585 3.92154 61.5799 3.79876C61.7 3.6771 61.7606 3.52849 61.7606 3.35651V2.48677C61.7606 2.31479 61.7 2.16618 61.5799 2.04464C61.4585 1.92174 61.313 1.86036 61.1419 1.86036H58.0264C57.8553 1.86036 57.7098 1.92174 57.5884 2.04464C57.4683 2.16618 57.4077 2.31479 57.4077 2.48677ZM71.0817 0.902161H72.3191V5.00004H71.1035V2.15388C71.089 2.16372 71.0464 2.1957 70.9736 2.24971C70.9021 2.30384 70.8135 2.37015 70.7105 2.44753C70.6073 2.52613 70.4957 2.61089 70.3732 2.70304C70.2518 2.79518 70.1342 2.88486 70.0213 2.96962C69.9084 3.05425 69.8078 3.13175 69.718 3.19929C69.6283 3.26806 69.5628 3.31837 69.5227 3.34913C69.4608 3.39944 69.3953 3.44742 69.325 3.49528C69.2545 3.54202 69.1842 3.58495 69.1138 3.62432C69.0423 3.66356 68.9719 3.69924 68.9028 3.72987C68.8324 3.76186 68.7656 3.78646 68.7013 3.80602C68.6371 3.82816 68.5704 3.84416 68.5012 3.85646C68.4307 3.86876 68.3665 3.87737 68.3071 3.88106C68.2379 3.88832 68.1712 3.89324 68.1044 3.8957C68.0377 3.89324 67.971 3.88832 67.9019 3.88106C67.8424 3.87737 67.778 3.86876 67.7077 3.85646C67.6386 3.84416 67.5719 3.82816 67.5076 3.80602C67.3789 3.76555 67.2419 3.70416 67.0939 3.62309C66.9459 3.54079 66.8087 3.44988 66.6826 3.34913C66.6425 3.31837 66.5782 3.26806 66.4872 3.19806C66.3974 3.12806 66.2956 3.05069 66.1815 2.96347C66.0686 2.87748 65.9498 2.78902 65.8272 2.69811C65.7035 2.60597 65.5907 2.52244 65.4875 2.44383C65.3845 2.36645 65.2971 2.30014 65.2268 2.24602C65.1552 2.19201 65.1151 2.16126 65.1054 2.15388V5.00004H63.8898V0.902161H65.1273L67.3777 2.5826C67.4481 2.6355 67.5234 2.68335 67.601 2.72628C67.6702 2.76319 67.7478 2.79641 67.8339 2.82581C67.9213 2.85533 68.0111 2.87132 68.1068 2.87132C68.1991 2.87132 68.2876 2.85533 68.375 2.82581C68.4611 2.79641 68.5388 2.76319 68.6079 2.72628C68.6855 2.68335 68.762 2.6355 68.8349 2.5826L71.0817 0.902161ZM73.4232 1.86773V0.902161H78.2784C78.7588 0.902161 79.1398 1.02997 79.4188 1.28671C79.5947 1.4427 79.7149 1.62699 79.778 1.83821C79.8204 1.99543 79.8422 2.21785 79.8422 2.50276V5.00004H74.418C74.0225 5.00004 73.7095 4.88945 73.4814 4.66838C73.2522 4.44855 73.1381 4.13768 73.1381 3.73971C73.1381 3.34174 73.2534 3.03346 73.4851 2.81473C73.7156 2.59613 74.0273 2.48677 74.418 2.48677H78.6266V2.44753C78.6266 2.14293 78.515 1.95864 78.293 1.8959C78.2238 1.87757 78.1195 1.86773 77.98 1.86773H73.4232ZM78.6266 4.03459V3.40805H74.7407C74.4823 3.40805 74.3537 3.51373 74.3537 3.72495C74.3537 3.93138 74.4823 4.03459 74.7407 4.03459H78.6266ZM81.8743 5.00004H80.6587V0.902161H87.0779V1.86773H81.8743V5.00004ZM88.1807 1.86773V0.902161H93.0359C93.5163 0.902161 93.8973 1.02997 94.1763 1.28671C94.3522 1.4427 94.4724 1.62699 94.5355 1.83821C94.5779 1.99543 94.5997 2.21785 94.5997 2.50276V5.00004H89.1754C88.78 5.00004 88.467 4.88945 88.2389 4.66838C88.0096 4.44855 87.8956 4.13768 87.8956 3.73971C87.8956 3.34174 88.0109 3.03346 88.2426 2.81473C88.473 2.59613 88.7848 2.48677 89.1754 2.48677H93.3841V2.44753C93.3841 2.14293 93.2725 1.95864 93.0505 1.8959C92.9813 1.87757 92.877 1.86773 92.7375 1.86773H88.1807ZM93.3841 4.03459V3.40805H89.4981C89.2398 3.40805 89.1112 3.51373 89.1112 3.72495C89.1112 3.93138 89.2398 4.03459 89.4981 4.03459H93.3841ZM95.4174 4.03459H100.521C100.777 4.03459 100.905 3.93138 100.905 3.72495C100.905 3.52849 100.793 3.42281 100.571 3.40805H96.3977V2.48677H100.521C100.777 2.49169 100.905 2.3886 100.905 2.17725C100.905 1.97095 100.777 1.86773 100.521 1.86773H95.4174V0.902161H100.841C101.238 0.902161 101.551 1.01276 101.779 1.23505C102.006 1.45747 102.12 1.76698 102.12 2.16495C102.12 2.48923 102.045 2.75335 101.896 2.95977C102.045 3.16115 102.12 3.42158 102.12 3.74094C102.12 4.13891 102.006 4.44855 101.779 4.66961C101.551 4.88945 101.238 5.00004 100.841 5.00004H95.4174V4.03459ZM104.381 5.00004C103.884 5.00004 103.52 4.86989 103.288 4.60946C103.053 4.34903 102.937 4.06276 102.937 3.74832V0.902161H104.152V3.54079C104.152 3.83062 104.293 3.97554 104.576 3.97554H108.258V0.902161H109.474V5.00004H104.381ZM116.741 0.902161V5.00004H115.525V3.40805H111.507V5.00004H110.291V0.902161H111.507V2.48677H115.525V0.902161H116.741ZM119.066 0.902161H122.968C123.385 0.902161 123.741 1.05089 124.035 1.3481C124.328 1.64544 124.475 2.00527 124.475 2.42784V3.47436C124.475 3.89201 124.328 4.25074 124.035 4.55041C123.741 4.85021 123.385 5.00004 122.968 5.00004H119.066C118.654 5.00004 118.3 4.85021 118.004 4.55041C117.708 4.25074 117.56 3.89201 117.56 3.47436V2.42784C117.56 2.00527 117.708 1.64544 118.004 1.3481C118.3 1.05089 118.654 0.902161 119.066 0.902161ZM118.812 2.48677V3.35651C118.812 3.52849 118.872 3.6771 118.992 3.79876C119.114 3.92154 119.259 3.98292 119.43 3.98292H122.546C122.717 3.98292 122.863 3.92154 122.984 3.79876C123.104 3.6771 123.165 3.52849 123.165 3.35651V2.48677C123.165 2.31479 123.104 2.16618 122.984 2.04464C122.863 1.92174 122.717 1.86036 122.546 1.86036H119.43C119.259 1.86036 119.114 1.92174 118.992 2.04464C118.872 2.16618 118.812 2.31479 118.812 2.48677ZM125.294 0.902161H130.718C131.116 0.902161 131.429 1.01276 131.657 1.23505C131.884 1.45747 131.998 1.76698 131.998 2.16495C131.998 2.48923 131.923 2.75335 131.774 2.95977C131.923 3.16115 131.998 3.42158 131.998 3.74094C131.998 4.13891 131.884 4.44855 131.657 4.66961C131.429 4.88945 131.116 5.00004 130.718 5.00004H125.294V0.902161ZM130.399 4.03459C130.655 4.03459 130.782 3.93138 130.782 3.72495C130.782 3.52849 130.671 3.42281 130.449 3.40805H126.509V4.03459H130.399ZM126.509 1.86773V2.48677H130.399C130.655 2.49169 130.782 2.3886 130.782 2.17725C130.782 1.97095 130.655 1.86773 130.399 1.86773H126.509Z" fill="white"/>
</svg>
